HIERARCHY
ROOT Hips
{
	OFFSET 0.000000 100.481300 0.000000
	CHANNELS 6 Xposition Yposition Zposition Xrotation Yrotation Zrotation
	JOINT Spine
	{
		OFFSET -0.279200 12.230698 -2.892100
		CHANNELS 3 Xrotation Yrotation Zrotation
		JOINT Spine1
		{
			OFFSET -0.325700 14.269203 -3.374200
			CHANNELS 3 Xrotation Yrotation Zrotation
			JOINT Spine2
			{
				OFFSET -0.372300 16.307602 -0.352600
				CHANNELS 3 Xrotation Yrotation Zrotation
				JOINT Neck
				{
					OFFSET -0.418800 17.814194 8.416900
					CHANNELS 3 Xrotation Yrotation Zrotation
					JOINT Head
					{
						OFFSET 0.000000 7.031097 3.806800
						CHANNELS 3 Xrotation Yrotation Zrotation
						JOINT HeadTop_End
						{
							OFFSET 0.000000 24.646606 12.978600
							CHANNELS 3 Xrotation Yrotation Zrotation
							End Site
							{
								OFFSET 0.000000 27.854965 0.000000
							}
						}
					}
				}
				JOINT LeftShoulder
				{
					OFFSET 16.952999 14.495407 -7.737500
					CHANNELS 3 Xrotation Yrotation Zrotation
					JOINT LeftArm
					{
						OFFSET 9.308998 -2.777710 0.208600
						CHANNELS 3 Xrotation Yrotation Zrotation
						JOINT LeftForeArm
						{
							OFFSET 29.972298 0.000000 0.000000
							CHANNELS 3 Xrotation Yrotation Zrotation
							JOINT LeftHand
							{
								OFFSET 26.026505 0.000000 0.000000
								CHANNELS 3 Xrotation Yrotation Zrotation
								JOINT LeftHandThumb1
								{
									OFFSET 12.240501 -7.147949 9.207150
									CHANNELS 3 Xrotation Yrotation Zrotation
									JOINT LeftHandThumb2
									{
										OFFSET 4.138618 -2.389435 2.389433
										CHANNELS 3 Xrotation Yrotation Zrotation
										JOINT LeftHandThumb3
										{
											OFFSET 2.726913 -1.574387 1.574386
											CHANNELS 3 Xrotation Yrotation Zrotation
											JOINT LeftHandThumb4
											{
												OFFSET 3.941010 -2.275345 2.275342
												CHANNELS 3 Xrotation Yrotation Zrotation
												End Site
												{
													OFFSET -0.005798 5.087799 0.009903
												}
											}
										}
									}
								}
								JOINT LeftHandIndex1
								{
									OFFSET 24.424698 -1.985611 5.953459
									CHANNELS 3 Xrotation Yrotation Zrotation
									JOINT LeftHandIndex2
									{
										OFFSET 6.426697 0.000000 0.000000
										CHANNELS 3 Xrotation Yrotation Zrotation
										JOINT LeftHandIndex3
										{
											OFFSET 5.337898 0.000000 0.000000
											CHANNELS 3 Xrotation Yrotation Zrotation
											JOINT LeftHandIndex4
											{
												OFFSET 4.409401 0.000000 0.000000
												CHANNELS 3 Xrotation Yrotation Zrotation
												End Site
												{
													OFFSET 0.000000 4.409363 0.014373
												}
											}
										}
									}
								}
								JOINT LeftHandMiddle1
								{
									OFFSET 23.810104 0.000000 0.000000
									CHANNELS 3 Xrotation Yrotation Zrotation
									JOINT LeftHandMiddle2
									{
										OFFSET 7.176498 0.000000 0.000000
										CHANNELS 3 Xrotation Yrotation Zrotation
										JOINT LeftHandMiddle3
										{
											OFFSET 6.774902 0.000000 0.000000
											CHANNELS 3 Xrotation Yrotation Zrotation
											JOINT LeftHandMiddle4
											{
												OFFSET 5.403328 0.000000 0.000000
												CHANNELS 3 Xrotation Yrotation Zrotation
												End Site
												{
													OFFSET -0.027702 5.403244 0.017414
												}
											}
										}
									}
								}
								JOINT LeftHandRing1
								{
									OFFSET 22.908401 -0.839279 -6.020567
									CHANNELS 3 Xrotation Yrotation Zrotation
									JOINT LeftHandRing2
									{
										OFFSET 6.337502 0.000000 0.000000
										CHANNELS 3 Xrotation Yrotation Zrotation
										JOINT LeftHandRing3
										{
											OFFSET 5.779297 0.000000 0.000000
											CHANNELS 3 Xrotation Yrotation Zrotation
											JOINT LeftHandRing4
											{
												OFFSET 4.965698 0.000000 0.000000
												CHANNELS 3 Xrotation Yrotation Zrotation
												End Site
												{
													OFFSET 0.000000 4.965668 0.016186
												}
											}
										}
									}
								}
								JOINT LeftHandPinky1
								{
									OFFSET 20.037003 -1.530319 -10.950146
									CHANNELS 3 Xrotation Yrotation Zrotation
									JOINT LeftHandPinky2
									{
										OFFSET 5.254700 0.000000 0.000000
										CHANNELS 3 Xrotation Yrotation Zrotation
										JOINT LeftHandPinky3
										{
											OFFSET 4.810204 0.000000 0.000000
											CHANNELS 3 Xrotation Yrotation Zrotation
											JOINT LeftHandPinky4
											{
												OFFSET 3.647202 0.000000 0.000000
												CHANNELS 3 Xrotation Yrotation Zrotation
												End Site
												{
													OFFSET 0.000000 3.647186 0.011889
												}
											}
										}
									}
								}
							}
						}
					}
				}
				JOINT RightShoulder
				{
					OFFSET -15.141001 14.495407 -7.737500
					CHANNELS 3 Xrotation Yrotation Zrotation
					JOINT RightArm
					{
						OFFSET -9.308998 -2.777710 0.208500
						CHANNELS 3 Xrotation Yrotation Zrotation
						JOINT RightForeArm
						{
							OFFSET -29.972300 0.000000 0.000000
							CHANNELS 3 Xrotation Yrotation Zrotation
							JOINT RightHand
							{
								OFFSET -26.026505 0.000000 0.000000
								CHANNELS 3 Xrotation Yrotation Zrotation
								JOINT RightHandThumb1
								{
									OFFSET -12.240601 -7.148026 9.207092
									CHANNELS 3 Xrotation Yrotation Zrotation
									JOINT RightHandThumb2
									{
										OFFSET -4.138618 -2.389435 2.389433
										CHANNELS 3 Xrotation Yrotation Zrotation
										JOINT RightHandThumb3
										{
											OFFSET -2.726974 -1.574417 1.574421
											CHANNELS 3 Xrotation Yrotation Zrotation
											JOINT RightHandThumb4
											{
												OFFSET -3.941010 -2.275345 2.275343
												CHANNELS 3 Xrotation Yrotation Zrotation
												End Site
												{
													OFFSET 0.005814 5.087799 0.009927
												}
											}
										}
									}
								}
								JOINT RightHandIndex1
								{
									OFFSET -24.424698 -1.985657 5.953444
									CHANNELS 3 Xrotation Yrotation Zrotation
									JOINT RightHandIndex2
									{
										OFFSET -6.426697 0.000000 0.000000
										CHANNELS 3 Xrotation Yrotation Zrotation
										JOINT RightHandIndex3
										{
											OFFSET -5.337898 0.000000 0.000000
											CHANNELS 3 Xrotation Yrotation Zrotation
											JOINT RightHandIndex4
											{
												OFFSET -4.409401 0.000000 0.000000
												CHANNELS 3 Xrotation Yrotation Zrotation
												End Site
												{
													OFFSET 0.000000 4.409363 0.014408
												}
											}
										}
									}
								}
								JOINT RightHandMiddle1
								{
									OFFSET -23.810097 0.000000 0.000000
									CHANNELS 3 Xrotation Yrotation Zrotation
									JOINT RightHandMiddle2
									{
										OFFSET -7.176498 0.000000 0.000000
										CHANNELS 3 Xrotation Yrotation Zrotation
										JOINT RightHandMiddle3
										{
											OFFSET -6.774902 0.000000 0.000000
											CHANNELS 3 Xrotation Yrotation Zrotation
											JOINT RightHandMiddle4
											{
												OFFSET -5.403328 0.000000 0.000000
												CHANNELS 3 Xrotation Yrotation Zrotation
												End Site
												{
													OFFSET 0.027702 5.403244 0.017457
												}
											}
										}
									}
								}
								JOINT RightHandRing1
								{
									OFFSET -22.908302 -0.839325 -6.020576
									CHANNELS 3 Xrotation Yrotation Zrotation
									JOINT RightHandRing2
									{
										OFFSET -6.337502 0.000000 0.000000
										CHANNELS 3 Xrotation Yrotation Zrotation
										JOINT RightHandRing3
										{
											OFFSET -5.779297 0.000000 0.000000
											CHANNELS 3 Xrotation Yrotation Zrotation
											JOINT RightHandRing4
											{
												OFFSET -4.965698 0.000000 0.000000
												CHANNELS 3 Xrotation Yrotation Zrotation
												End Site
												{
													OFFSET 0.000000 4.965668 0.016226
												}
											}
										}
									}
								}
								JOINT RightHandPinky1
								{
									OFFSET -20.037003 -1.530334 -10.950259
									CHANNELS 3 Xrotation Yrotation Zrotation
									JOINT RightHandPinky2
									{
										OFFSET -5.254700 0.000000 0.000000
										CHANNELS 3 Xrotation Yrotation Zrotation
										JOINT RightHandPinky3
										{
											OFFSET -4.810204 0.000000 0.000000
											CHANNELS 3 Xrotation Yrotation Zrotation
											JOINT RightHandPinky4
											{
												OFFSET -3.647202 0.000000 0.000000
												CHANNELS 3 Xrotation Yrotation Zrotation
												End Site
												{
													OFFSET 0.000000 3.647186 0.011917
												}
											}
										}
									}
								}
							}
						}
					}
				}
			}
		}
	}
	JOINT LeftUpLeg
	{
		OFFSET 15.427100 -6.655098 0.678600
		CHANNELS 3 Xrotation Yrotation Zrotation
		JOINT LeftLeg
		{
			OFFSET 4.081073 -39.591068 13.024000
			CHANNELS 3 Xrotation Yrotation Zrotation
			JOINT LeftFoot
			{
				OFFSET -4.081074 -37.707932 -15.979700
				CHANNELS 3 Xrotation Yrotation Zrotation
				JOINT LeftToeBase
				{
					OFFSET 5.346399 -15.068900 20.645000
					CHANNELS 3 Xrotation Yrotation Zrotation
					JOINT LeftToe_End
					{
						OFFSET 2.754700 0.931300 11.300900
						CHANNELS 3 Xrotation Yrotation Zrotation
						End Site
						{
							OFFSET 0.000000 11.669021 0.000000
						}
					}
				}
			}
		}
	}
	JOINT RightUpLeg
	{
		OFFSET -15.569500 -6.655098 0.678600
		CHANNELS 3 Xrotation Yrotation Zrotation
		JOINT RightLeg
		{
			OFFSET -4.081825 -39.591045 13.023800
			CHANNELS 3 Xrotation Yrotation Zrotation
			JOINT RightFoot
			{
				OFFSET 4.081824 -37.707954 -15.979600
				CHANNELS 3 Xrotation Yrotation Zrotation
				JOINT RightToeBase
				{
					OFFSET -5.346400 -15.068900 20.645000
					CHANNELS 3 Xrotation Yrotation Zrotation
					JOINT RightToe_End
					{
						OFFSET -2.754700 0.931300 11.300900
						CHANNELS 3 Xrotation Yrotation Zrotation
						End Site
						{
							OFFSET 0.000000 11.669021 0.000000
						}
					}
				}
			}
		}
	}
}
MOTION
Frames: 5
Frame Time: 0.033333
2.982712 78.346077 -1.831015 2.161042 -1.446854 -2.491957 15.084626 -0.338440 8.923805 4.536990 -0.157159 0.919202 4.536422 -0.184597 0.914225 -0.396365 0.067076 0.018973 -18.475079 -0.073698 1.309360 0.000001 -0.000000 0.000000 1.381716 -11.968011 1.616939 -7.031175 -14.888875 -65.286309 0.000005 -26.988903 -0.000002 13.777317 -1.333697 7.905417 7.667690 3.743940 9.578469 4.699290 17.310976 1.437847 -0.579465 1.574994 2.538715 -0.000001 -0.000001 -0.000003 -0.560008 -2.233453 -11.166734 0.059708 0.906673 -7.535406 0.047893 0.812286 -6.746968 0.000006 -0.000000 -0.000000 0.768506 3.805630 -14.659261 0.164512 1.499136 -12.524699 0.088863 1.104908 -9.196175 -0.000004 0.000000 -0.000000 3.589185 10.922611 -19.868506 0.359676 2.200330 -18.564896 0.158742 1.472903 -12.302022 0.000002 0.000002 -0.000001 9.192735 20.351554 -25.456603 0.548353 -1.374360 -23.335685 0.217394 1.719850 -14.406904 -0.000002 -0.000000 0.000001 -0.300670 1.408192 -19.856897 8.921534 24.848285 55.501158 0.000382 94.550705 -0.000403 7.115382 4.590064 -5.431501 -2.952580 -4.163047 -18.871623 5.177095 -14.588968 -0.641917 -1.273760 0.137321 -2.094864 0.000003 -0.000001 0.000003 -0.967463 1.292204 20.909154 0.208539 -1.693412 14.039590 -0.000015 -0.006084 0.050038 0.000000 -0.000000 -0.000001 0.027451 -1.613080 25.190335 0.433523 -2.421089 20.300478 -0.740575 -0.734298 5.422605 0.000000 -0.000003 0.000000 1.817362 -4.921755 31.567451 0.779629 -3.204040 27.344997 -0.714948 -1.563166 11.460920 0.000002 0.000001 -0.000001 3.986691 -7.456288 38.142860 1.056837 -3.690215 31.953162 0.254986 -1.869273 15.533578 0.000001 0.000000 0.000000 -32.034482 -3.827189 29.042815 69.668032 7.657153 0.817687 2.582083 0.502600 -2.285509 -14.771356 2.148488 -15.490739 -0.000000 0.000002 -0.000000 -41.308308 -5.382197 -2.864164 51.510763 1.526730 -0.149196 -12.310783 -0.799973 1.182955 -0.000099 0.000000 -0.000001 -0.000000 -0.000000 -0.000000 
2.833847 75.930534 -5.162589 1.925875 2.117957 -3.423787 15.757081 -0.769074 10.152094 4.175178 -0.181722 0.999696 4.174997 -0.214681 0.994757 -0.396568 -0.202428 -0.057253 -17.410902 -1.222935 0.331296 -0.000001 0.000000 -0.000000 1.408597 -14.905011 -1.571444 -11.021268 -22.343350 -66.402334 0.000008 -29.081918 -0.000002 11.168695 -0.065399 9.327605 7.667691 3.743942 9.578471 4.699285 17.310978 1.437850 -0.579459 1.574993 2.538715 -0.000002 0.000002 0.000005 -0.540428 -2.297984 -10.671571 0.083669 1.072327 -8.922703 0.057280 0.888181 -7.380831 -0.000001 -0.000000 -0.000001 0.736888 3.754247 -14.179503 0.200348 1.652148 -13.827878 0.103220 1.190212 -9.913419 0.000002 0.000000 0.000001 3.496559 10.894593 -19.379041 0.411496 2.348890 -19.870564 0.178249 1.559677 -13.039442 -0.000001 -0.000000 -0.000001 9.007679 20.370886 -24.924738 0.617110 -1.220228 -24.732460 0.238892 1.801449 -15.106748 0.000003 -0.000001 -0.000002 -0.676782 -1.573802 -17.094620 10.549838 24.744681 61.013732 -0.000215 81.568694 0.000205 1.639470 5.213528 -7.643961 -2.952583 -4.163044 -18.871621 5.177098 -14.588975 -0.641916 -1.273752 0.137324 -2.094866 0.000000 0.000000 0.000002 -0.957319 1.354088 20.464988 0.225501 -1.759774 14.602190 0.000473 -0.082085 0.673496 0.000001 -0.000000 -0.000000 0.015504 -1.560838 24.760739 0.455626 -2.480027 20.817843 -0.712877 -0.804601 5.959790 -0.000000 -0.000001 0.000000 1.780343 -4.882853 31.135025 0.808804 -3.259779 27.862693 -0.688990 -1.615137 11.870732 0.000002 -0.000001 -0.000001 3.928322 -7.433082 37.691299 1.093468 -3.748145 32.517629 0.264238 -1.902244 15.814938 0.000000 -0.000002 -0.000000 -24.571909 -5.426029 28.017100 74.564745 7.841455 -0.092175 2.530466 1.497540 -3.624524 -15.531053 4.876252 -24.329395 0.000001 -0.000001 -0.000000 -44.933468 -4.542787 -3.436139 54.855332 -1.469467 -0.527520 -11.546680 -1.125258 3.570013 -0.000160 -0.000002 0.000000 0.000000 0.000000 0.000000 
2.728607 75.964233 -8.746082 2.568092 5.143046 -3.322487 15.888970 -0.892169 9.433383 3.907973 -0.173356 1.142197 3.908548 -0.193115 1.137714 -0.397114 -0.547536 -0.154869 -16.292703 -2.672556 -0.855960 0.000000 -0.000000 0.000000 1.481240 -17.656917 -2.585843 -14.789760 -28.033371 -68.270657 0.000011 -32.359418 0.000019 8.971055 -0.857038 10.160677 7.667698 3.743940 9.578470 4.699288 17.310976 1.437843 -0.579465 1.574989 2.538720 -0.000002 -0.000002 0.000001 -0.510142 -2.394098 -9.931610 0.106224 1.207190 -10.056231 0.058853 0.900197 -7.481193 0.000001 0.000002 -0.000001 0.690453 3.676961 -13.462793 0.231447 1.773745 -14.868828 0.109805 1.227239 -10.225119 0.000002 -0.000001 0.000000 3.358642 10.851241 -18.647864 0.455151 2.466236 -20.909748 0.191604 1.616186 -13.521021 0.000001 -0.000000 0.000001 8.730822 20.396755 -24.129849 0.675395 -1.096959 -25.861302 0.256998 1.867178 -15.672327 -0.000001 0.000001 -0.000005 -1.134906 -4.321532 -15.338911 7.437862 25.774368 68.138637 0.000018 67.137112 -0.000020 -4.151695 6.039275 -10.128260 -2.952581 -4.163044 -18.871623 5.177099 -14.588975 -0.641917 -1.273759 0.137318 -2.094869 -0.000002 0.000002 -0.000001 -0.917212 1.571696 18.894001 0.252520 -1.860385 15.457826 0.001029 -0.120355 0.987779 0.000002 -0.000002 -0.000001 -0.023416 -1.375643 23.241747 0.488016 -2.563423 21.553306 -0.693615 -0.857602 6.365276 -0.000003 0.000001 0.000001 1.652062 -4.743347 29.606271 0.851167 -3.338529 28.598677 -0.672610 -1.674173 12.317489 -0.000001 -0.000002 -0.000002 3.723032 -7.346770 36.094920 1.150257 -3.835565 33.376170 0.278623 -1.952298 16.242803 0.000004 -0.000001 0.000000 -17.943624 -5.179010 26.032737 72.431595 7.465362 -0.779677 5.422697 1.283518 -3.333069 -15.855266 7.103170 -31.826796 0.000001 -0.000000 -0.000002 -47.480371 -3.032803 -4.232574 53.703042 -3.542479 -1.612507 -8.204095 -1.329078 6.054378 -0.000093 0.000000 -0.000002 0.000000 -0.000000 -0.000000 
2.852108 78.107613 -12.274730 4.242959 6.601184 -2.687235 15.251705 -1.056209 8.526523 3.897812 -0.160135 1.291830 3.899054 -0.170804 1.287073 -0.397653 -0.725820 -0.205299 -15.684495 -3.167672 -2.173161 0.000001 -0.000000 -0.000000 1.669581 -20.121756 -2.384164 -19.335323 -33.387734 -69.528109 -0.000006 -38.772836 -0.000016 8.250764 -1.401271 10.474840 7.667697 3.743941 9.578474 4.699287 17.310974 1.437847 -0.579464 1.574991 2.538713 -0.000000 -0.000002 -0.000003 -0.441730 -2.596812 -8.360258 0.130364 1.336177 -11.144048 0.056001 0.878253 -7.297810 -0.000002 0.000002 0.000000 0.595072 3.510983 -11.941618 0.261837 1.884313 -15.820043 0.112470 1.242036 -10.349728 -0.000001 0.000000 -0.000000 3.067808 10.753535 -17.096261 0.496958 2.572884 -21.860674 0.202843 1.662234 -13.914063 0.000001 -0.000002 -0.000002 8.141760 20.439715 -22.441461 0.733762 -0.979444 -26.947502 0.275035 1.930279 -16.216553 0.000001 -0.000000 -0.000001 -1.661578 -7.047442 -14.536062 4.357500 26.672871 74.627658 -0.000007 50.199800 0.000011 -7.149829 7.542345 -10.887868 -2.952580 -4.163050 -18.871618 5.177096 -14.588972 -0.641919 -1.273758 0.137320 -2.094864 -0.000002 -0.000001 0.000005 -0.854200 1.860973 16.790591 0.277565 -1.948661 16.211635 0.001142 -0.126080 1.034619 -0.000000 0.000001 -0.000000 -0.067800 -1.126298 21.208840 0.515495 -2.631914 22.160040 -0.684135 -0.885423 6.578138 0.000002 -0.000002 0.000001 1.486330 -4.551376 27.560889 0.886859 -3.403088 29.205817 -0.666097 -1.719649 12.651972 0.000003 -0.000002 -0.000001 3.452155 -7.222333 33.959076 1.201348 -3.911866 34.132579 0.291613 -1.996316 16.619749 -0.000000 0.000001 -0.000001 -11.675186 -2.428916 22.701614 65.742217 7.083481 -0.626725 5.407016 -0.418464 -5.591414 -17.676296 8.378576 -32.837968 0.000001 -0.000003 -0.000002 -48.944606 -1.350688 -4.853428 48.081776 -2.955024 -2.822164 -2.768756 -1.115968 7.660124 -0.000061 0.000000 0.000003 -0.000000 0.000000 0.000000 
3.281073 80.478348 -15.337646 6.915850 6.797006 -3.021291 13.481228 -1.427301 8.235690 4.086579 -0.158951 1.463031 4.088411 -0.171745 1.456928 -0.397730 -0.746357 -0.211108 -15.077545 -3.243495 -2.298868 0.000001 0.000000 0.000000 1.938692 -21.476792 -1.273679 -24.711085 -38.562951 -69.401163 0.000003 -48.274090 -0.000003 9.022936 -1.035164 10.971964 7.667697 3.743948 9.578467 4.699289 17.310976 1.437844 -0.579463 1.574991 2.538718 0.000000 0.000001 -0.000001 -0.370939 -2.789266 -6.853636 0.139344 1.380972 -11.522968 0.058493 0.897450 -7.458215 -0.000000 0.000001 0.000000 0.507867 3.349600 -10.484049 0.271004 1.916389 -16.096668 0.116972 1.266322 -10.554491 -0.000002 -0.000003 -0.000001 2.791769 10.652660 -15.610001 0.509480 2.603823 -22.137794 0.209110 1.687287 -14.128269 -0.000002 -0.000001 0.000001 7.575953 20.465617 -20.822407 0.754603 -0.938764 -27.325871 0.281455 1.952198 -16.406135 -0.000001 0.000001 -0.000000 -2.106874 -9.123417 -14.538563 3.549106 27.238641 79.608840 -0.000009 32.883847 0.000006 -6.696504 9.443804 -9.975899 -2.952575 -4.163048 -18.871621 5.177098 -14.588970 -0.641918 -1.273756 0.137322 -2.094863 -0.000000 -0.000000 0.000001 -0.808178 2.045266 15.440679 0.273247 -1.933759 16.084156 0.001749 -0.155936 1.279682 0.000000 -0.000000 0.000001 -0.091598 -0.965558 19.904718 0.506341 -2.609315 21.959671 -0.673813 -0.905110 6.732190 -0.000001 0.000002 0.000003 1.383677 -4.425143 26.249182 0.874994 -3.381807 29.005262 -0.659093 -1.723619 12.691642 -0.000002 0.000002 -0.000000 3.280949 -7.137237 32.589312 1.192635 -3.899002 34.004674 0.289393 -1.988883 16.555998 0.000002 -0.000001 0.000001 -6.124720 1.296995 19.348749 57.162956 5.400597 -0.010647 1.376038 0.601631 -9.120500 -27.869371 10.883892 -23.510020 -0.000001 0.000002 -0.000001 -50.170420 -0.024415 -4.792018 40.755578 -0.467988 -3.295378 2.938709 -0.658232 8.917549 -0.764911 0.000001 0.000001 -0.000000 -0.000000 -0.000000 
